<?xml version="1.0" encoding="UTF-8"?>
<svg version="1.1" xmlns="http://www.w3.org/2000/svg" width="48" height="48">
<path d="M0 0 C6.15588469 1.03678058 11.68764084 5.75014084 16 10.0625 C17.66702311 23.22165588 17.66702311 23.22165588 14.6796875 28.3125 C12.86783529 29.87248038 11.12004181 30.96321906 9 32.0625 C8.39027344 32.46726563 7.78054688 32.87203125 7.15234375 33.2890625 C3.74685841 35.48952995 1.0577787 36.75811921 -3 36.0625 C-5.90441659 33.15808341 -5.25867736 30.99492155 -5.265625 26.9375 C-5.26753845 26.2347998 -5.2694519 25.53209961 -5.27142334 24.80810547 C-5.27278475 23.32193646 -5.26909132 21.83575555 -5.26074219 20.34960938 C-5.25004154 18.07134354 -5.26063839 15.79386623 -5.2734375 13.515625 C-5.2721159 12.07291492 -5.26955349 10.63020534 -5.265625 9.1875 C-5.26336914 7.87007812 -5.26111328 6.55265625 -5.25878906 5.1953125 C-4.91170529 0.9936342 -4.26142661 0.08877972 0 0 Z " fill="#FA766A" transform="translate(5,5.9375)"/>
<path d="M0 0 C1.96066406 -0.03867187 1.96066406 -0.03867187 3.9609375 -0.078125 C9.1200816 0.3838879 11.56408414 2.3541155 15.4375 5.625 C17.625 8.25 17.625 8.25 17.625 13.25 C4.755 13.25 -8.115 13.25 -21.375 13.25 C-21.375 11.6 -21.375 9.95 -21.375 8.25 C-19.07421875 6.265625 -19.07421875 6.265625 -16.0625 4.5 C-15.07636719 3.90703125 -14.09023437 3.3140625 -13.07421875 2.703125 C-8.57054188 0.27856958 -5.07308551 0.05980062 0 0 Z " fill="#614CF5" transform="translate(27.375,34.75)"/>
<path d="M0 0 C12.87 0 25.74 0 39 0 C39 5 39 5 37.57421875 6.984375 C36.95160156 7.56703125 36.32898437 8.1496875 35.6875 8.75 C35.07261719 9.34296875 34.45773438 9.9359375 33.82421875 10.546875 C28.55358416 14.74532483 20.35426393 13.68440195 14 13 C9.9692999 11.46246769 6.53521376 9.45430308 3 7 C2.01 6.34 1.02 5.68 0 5 C0 3.35 0 1.7 0 0 Z " fill="#614CF5" transform="translate(6,0)"/>
<path d="M0 0 C4.91511194 1.34048507 4.91511194 1.34048507 6.4375 3.9375 C6.9375 6.875 6.9375 6.875 6.4375 9.9375 C4.375 12.375 4.375 12.375 1.4375 13.9375 C-2.25 13.875 -2.25 13.875 -5.5625 12.9375 C-7.88999345 9.44625983 -8.06549316 8.04527749 -7.5625 3.9375 C-5.26874134 0.3592365 -4.28872478 -0.07524079 0 0 Z " fill="#F97767" transform="translate(29.5625,17.0625)"/>
</svg>
